<svg width="9" height="12" viewBox="0 0 9 12" fill="none" xmlns="http://www.w3.org/2000/svg">
    <path fill-rule="evenodd" clip-rule="evenodd" d="M9 4.47269C9 5.71992 8.45268 6.84406 7.57669 7.6346C7.55447 7.69736 7.52542 7.7594 7.48912 7.81994L5.35763 11.3746C4.96928 12.0223 4.03072 12.0223 3.64237 11.3746L1.51088 7.81994C1.47458 7.7594 1.44553 7.69736 1.42331 7.6346C0.547317 6.84406 0 5.71992 0 4.47269C0 2.07975 2.01472 0.139893 4.5 0.139893C6.98528 0.139893 9 2.07975 9 4.47269ZM4.5 6.95386C5.88071 6.95386 7 5.87616 7 4.54675C7 3.21734 5.88071 2.13964 4.5 2.13964C3.11929 2.13964 2 3.21734 2 4.54675C2 5.87616 3.11929 6.95386 4.5 6.95386Z" fill="currentColor"/>
</svg>
