<svg width="17" height="64" viewBox="0 0 17 64" fill="none" xmlns="http://www.w3.org/2000/svg">
    <path d="M0 13.4703H3.39822L3.40178 10.1027H6.8L6.80178 6.73514H10.2V3.36757H13.6L13.6018 0H17V10.1027H13.6018L13.6 13.4703H10.2018V16.8378H6.80178L6.8 20.2054H3.40178L3.39822 23.5748H0V13.4703Z" fill="currentColor"/>
    <path d="M0 33.6829H3.39822L3.40178 30.3154H6.8L6.80178 26.9478H10.2V23.5802H13.6L13.6018 20.2126H17V30.3154H13.6018L13.6 33.6829H10.2018V37.0505H6.80178L6.8 40.4181H3.40178L3.39822 43.7874H0V33.6829Z" fill="currentColor"/>
    <path d="M0 53.8956H3.39822L3.40178 50.528H6.8L6.80178 47.1604H10.2V43.7929H13.6L13.6018 40.4253H17V50.528H13.6018L13.6 53.8956H10.2018V57.2631H6.80178L6.8 60.6307H3.40178L3.39822 64.0001H0V53.8956Z" fill="currentColor"/>
</svg>
