<svg width="52" height="30" viewBox="0 0 52 30" fill="none" xmlns="http://www.w3.org/2000/svg">
    <path d="M19.2128 0.957967C24.7612 0.957967 30.3096 0.976403 35.8573 0.945677C37.3809 0.937074 38.9045 0.929086 40.4281 0.911265C40.5581 0.909422 40.6868 0.927242 40.8162 0.938303C41.4356 0.989307 41.5968 1.45756 41.721 1.951C43.0314 7.13925 42.6154 12.6648 40.2871 17.5446C39.6663 18.8455 38.9084 20.0708 38.0706 21.2519C37.4121 22.1804 36.6945 23.0671 35.9093 23.9066C35.3237 24.5327 34.7081 25.1306 34.0549 25.6892C32.8257 26.7406 31.5212 27.6999 30.0002 28.3586C29.1936 28.7083 28.3479 28.927 27.4678 29.0438C26.5903 29.1605 25.7089 29.1593 24.8288 29.1409C19.9642 29.0413 15.0996 29.1188 10.235 29.0979C7.7169 29.0874 5.19815 29.0954 2.68005 29.0979C2.4168 29.0979 2.15745 29.0782 1.90915 29.0014C1.39305 28.8428 1.0804 28.4152 1.05115 27.848C1.0427 27.687 1.0453 27.5254 1.0453 27.3644C1.0453 19.1122 1.0453 10.8601 1.0453 2.60852C1.0453 2.37255 1.0505 2.13843 1.09925 1.90184C1.2169 1.33589 1.6927 0.998525 2.29655 0.964112C2.5065 0.951822 2.71775 0.957353 2.92835 0.957353C8.3565 0.957353 13.784 0.957353 19.2121 0.956124L19.2128 0.957967Z" fill="#2F4653"/>
    <path d="M41.5558 23.3424C41.858 23.265 42.1037 23.1016 42.3345 22.927C43.3192 22.1835 44.0511 21.2427 44.6758 20.2177C46.9274 16.5209 48.2534 12.373 48.5134 8.09357C48.54 7.65789 48.5426 7.22344 48.5569 6.78837C48.5589 6.72385 48.5413 6.65502 48.6011 6.58497C48.7799 6.63413 48.9411 6.71709 49.0867 6.83876C50.8293 8.29882 51.1244 11.0715 50.9359 13.1208C50.4887 17.9723 47.6554 23.1501 43.106 25.6548C43.0014 25.7126 42.8954 25.7685 42.7882 25.8226C42.0855 26.1771 41.3556 26.4555 40.6042 26.6939C40.4625 26.7388 40.3208 26.7843 40.1804 26.8291C40.7998 26.7966 41.6565 26.6946 42.627 26.3928C45.2218 25.5866 47.2888 23.7671 48.724 21.6132C49.0769 21.0835 49.3935 20.5354 49.7029 19.9823C49.7217 19.9492 49.7406 19.9141 49.7887 19.9043C49.8459 19.9055 49.8693 19.9485 49.8888 19.9909C50.6096 21.5653 50.4237 23.1796 49.4078 24.6022C47.4077 27.4012 43.1814 29.0721 39.6864 29.0856C36.465 29.0979 33.2442 29.0942 30.0228 29.0936C29.9214 29.0936 29.7674 29.144 29.7394 29.0088C29.7095 28.865 29.874 28.8822 29.9682 28.8416C34.8556 26.7173 38.5534 23.0112 40.9636 18.4854C43.0579 14.5526 44.1103 10.1012 43.7001 5.69886C43.5688 4.28857 43.2919 2.88997 42.8662 1.53253C42.8408 1.4508 42.8051 1.37092 42.7882 1.28735C42.7297 0.994843 42.8213 0.921103 43.1379 0.950599C43.9289 1.02372 44.627 1.30087 45.2491 1.76359C46.4262 2.63925 46.878 4.22712 47.1497 5.56182C47.658 8.06162 47.1386 10.8306 46.5205 13.2763C45.7164 16.4594 44.3592 19.57 42.4021 22.2769C42.1934 22.5657 41.9523 22.833 41.728 23.1108C41.6676 23.1857 41.613 23.2644 41.5558 23.3412V23.3424Z" fill="url(#paint0_linear_1608_4515)"/>
    <path d="M13.7018 12.8456C13.6966 12.4529 13.5679 12.0578 13.2013 11.8372C12.8444 11.6227 12.3699 11.627 12.0891 11.9533C12.0664 11.9798 12.0176 12.0246 12.0319 12.0633C12.0462 12.102 12.1346 12.0928 12.1717 12.1106C12.2354 12.1408 12.2607 12.201 12.2588 12.2655C12.2562 12.3405 12.2555 13.0564 12.2523 14.0433C11.3338 14.0383 10.4147 14.0328 9.49628 14.0279C9.47873 13.8122 9.47223 13.5701 9.48848 13.3071C9.50343 13.0644 9.53658 12.8229 9.58663 12.5844C9.60873 12.48 9.63408 12.3761 9.66268 12.2735C9.69388 12.1604 9.78033 12.0215 9.77123 11.9029C9.76993 11.887 9.76603 11.871 9.75563 11.8587C9.73093 11.8298 9.68348 11.8347 9.64578 11.8439C9.41178 11.9005 9.18428 12.0185 9.00488 12.1715C8.94963 12.2182 8.80208 12.3509 8.66883 12.5771C8.31523 13.1756 8.28728 14.0236 8.28728 14.0236C8.26908 14.5717 8.24633 15.6827 8.86448 16.8362C8.86448 16.8362 9.29738 17.6449 9.91683 17.8439C10.039 17.8833 10.0722 17.8575 10.0826 17.8439C10.1307 17.7856 10.0273 17.6848 9.99678 17.6399C9.94023 17.5576 9.89213 17.4703 9.85053 17.38C9.76473 17.1938 9.70753 16.9965 9.66528 16.7981C9.53593 16.1934 9.45208 15.5814 9.47028 14.9638H12.2523V17.2848C12.2523 17.4384 12.3186 17.5865 12.4687 17.659C12.5591 17.7026 12.6618 17.718 12.7625 17.7297C12.9387 17.7505 13.1187 17.7616 13.2929 17.7297C13.395 17.7112 13.497 17.6762 13.5731 17.6092C13.6959 17.5017 13.6979 17.3554 13.6979 17.2086C13.6979 16.0428 13.7096 14.8771 13.7076 13.7114C13.7076 13.422 13.705 13.1332 13.7018 12.8437V12.8456Z" fill="url(#paint1_linear_1608_4515)"/>
    <path d="M9.89036 18.1352C8.76781 17.8249 8.3297 16.7004 8.08985 15.7252C8.03785 15.5125 7.98781 15.303 7.95791 15.0861C7.86821 14.4304 7.87211 13.7096 8.09701 13.0767C7.92541 13.1129 7.84805 13.2524 7.74795 13.3655C7.382 13.7784 7.35341 14.2608 7.33586 14.7401C7.29426 15.8659 7.72911 16.6666 7.82596 16.8386C8.04436 17.2252 8.28226 17.4796 8.35246 17.5527C8.60205 17.8139 8.85296 17.9951 9.04536 18.1156C8.89261 18.0799 8.67681 18.013 8.44606 17.8784C8.23221 17.7536 8.07946 17.6148 7.97936 17.5085C7.83441 17.3333 7.73236 17.1791 7.66606 17.0697C7.48731 16.7772 7.26501 16.4128 7.15191 15.9243C7.12006 15.7872 7.09861 15.6477 7.04141 15.6422C6.95886 15.6342 6.86591 15.912 6.84576 15.9716C6.78076 16.1651 6.76451 16.344 6.76516 16.4386C6.76971 16.8073 7.06221 17.5244 7.76096 18.0111C7.76096 18.0111 8.37196 18.4363 9.41716 18.4689C9.46006 18.4701 9.71291 18.4646 9.90076 18.3374C9.99306 18.2747 10.0542 18.1789 9.89036 18.134V18.1352Z" fill="url(#paint2_linear_1608_4515)"/>
    <path d="M8.09846 13.073C8.09846 13.073 8.09782 13.0756 8.09717 13.0769C8.09846 13.0769 8.09976 13.0762 8.10105 13.0756L8.09846 13.073Z" fill="url(#paint3_linear_1608_4515)"/>
    <path d="M8.09814 13.0742L8.10155 13.0775L8.11518 13.0588L8.09814 13.0742Z" fill="url(#paint4_linear_1608_4515)"/>
    <path d="M28.0681 12.7086C28.0727 12.5734 28.0681 12.3731 28.0168 12.1322C28.0116 12.1064 28.0051 12.0449 27.9719 11.9736C27.9544 11.9349 27.905 11.8323 27.7899 11.7622C27.7282 11.7254 27.6593 11.7033 27.5865 11.7039C27.5358 11.7039 27.4851 11.7076 27.435 11.7076C27.3648 11.7076 27.2946 11.7094 27.2244 11.71C27.0879 11.7112 26.9514 11.7082 26.8156 11.7131C26.6934 11.7174 26.579 11.7567 26.4919 11.8434C26.3885 11.946 26.306 12.0922 26.1695 12.4056C26.1467 12.4572 26.1285 12.5015 26.1162 12.5316C26.0642 12.6379 25.3303 14.1422 25.0528 14.5773C25.0326 14.6099 24.9871 14.6793 24.9312 14.6768C24.8747 14.6793 24.8298 14.6099 24.8097 14.5773C24.5328 14.1416 23.7983 12.6379 23.7463 12.5316C23.7339 12.5015 23.7157 12.4579 23.693 12.4056C23.5565 12.0922 23.4739 11.946 23.3706 11.8434C23.2841 11.7567 23.1697 11.7174 23.0469 11.7131C22.9104 11.7088 22.7739 11.7112 22.638 11.71C22.5678 11.71 22.4976 11.7082 22.4274 11.7076C22.3767 11.7076 22.326 11.7045 22.276 11.7039C22.2032 11.7039 22.1349 11.7254 22.0725 11.7622C21.9575 11.8323 21.9081 11.9349 21.8905 11.9736C21.8574 12.0449 21.8509 12.1064 21.8457 12.1322C21.795 12.3737 21.7898 12.574 21.7943 12.7086C21.741 14.2565 21.6877 15.8032 21.6338 17.3511C21.6357 17.377 21.6409 17.4126 21.6559 17.4525C21.7397 17.6793 22.0439 17.7905 22.2779 17.7936C22.5145 17.7967 22.7973 17.6904 22.8974 17.4851C22.8987 17.4826 22.9169 17.4427 22.9266 17.3985C22.9962 17.0832 23.0365 14.5447 23.0514 13.4392C23.6923 14.6805 24.1935 15.6084 24.4255 16.0177C24.4723 16.1019 24.5731 16.2709 24.7583 16.3286C24.8116 16.3458 24.8708 16.355 24.9312 16.3557C24.9917 16.3557 25.0508 16.3458 25.1041 16.3286C25.2894 16.2709 25.3895 16.1019 25.4369 16.0177C25.6683 15.6084 26.1701 14.6805 26.811 13.4392C26.826 14.5453 26.8663 17.0832 26.9358 17.3985C26.9456 17.4427 26.9638 17.4826 26.9651 17.4851C27.0652 17.6904 27.3479 17.7967 27.5845 17.7936C27.8192 17.7905 28.1227 17.6793 28.2066 17.4525C28.2215 17.4126 28.2267 17.377 28.2287 17.3511C28.1754 15.8032 28.1221 14.2565 28.0681 12.7086Z" fill="url(#paint5_linear_1608_4515)"/>
    <path d="M16.6526 16.3721C16.6675 16.374 16.6823 16.3767 16.6958 16.3806C16.6958 16.3819 16.6958 16.3826 16.6945 16.3839C16.683 16.4023 16.6439 16.3918 16.6526 16.3721Z" fill="white"/>
    <path d="M20.3575 11.8882C20.2242 11.7291 19.9967 11.7229 19.7777 11.7174C19.5703 11.7119 19.3064 11.7051 19.1413 11.8784C19.0497 11.9749 19.0243 12.0885 19.0165 12.1574C19.0126 13.2997 19.0087 14.4415 19.0048 15.5838C19.0068 15.6957 18.9951 15.9064 18.8755 16.1381C18.7494 16.3827 18.5706 16.5216 18.5251 16.5554C18.5251 16.5554 18.2209 16.7827 17.8231 16.8128C17.7835 16.8159 17.7412 16.8171 17.7412 16.8171C17.7308 16.8171 17.7204 16.8171 17.71 16.8177C17.6996 16.8177 17.6892 16.8177 17.6788 16.8171C17.6788 16.8171 17.6372 16.8159 17.5969 16.8128C17.1991 16.7821 16.8949 16.5554 16.8949 16.5554C16.8488 16.5209 16.6707 16.3827 16.5446 16.1381C16.425 15.9064 16.4133 15.6957 16.4152 15.5838C16.4113 14.4415 16.4074 13.2997 16.4035 12.1574C16.3957 12.0885 16.371 11.9749 16.2787 11.8784C16.1136 11.7051 15.8497 11.7119 15.6424 11.7174C15.424 11.7229 15.1958 11.7291 15.0626 11.8882C14.9579 12.013 14.9664 12.1672 14.9748 12.2342V15.8204C14.9748 16.1541 15.0762 16.5959 15.4149 17.0156C15.7951 17.4869 16.3353 17.6971 16.5017 17.7555C16.839 17.8741 17.1712 17.9073 17.2726 17.9165C17.4487 17.9331 17.5989 17.9337 17.71 17.9306C17.8212 17.9337 17.9713 17.9331 18.1475 17.9165C18.2489 17.9066 18.581 17.8735 18.9184 17.7555C19.0848 17.6971 19.6249 17.4869 20.0052 17.0156C20.3432 16.5959 20.4452 16.1541 20.4452 15.8204V12.2342C20.4537 12.1672 20.4621 12.013 20.3575 11.8882Z" fill="url(#paint6_linear_1608_4515)"/>
    <path d="M16.9624 17.8525C16.9746 17.8545 16.986 17.8578 16.9968 17.8624L16.9773 17.8742L16.9624 17.8525Z" fill="white"/>
    <path d="M35.4087 13.6137C35.2254 13.0379 34.851 12.5303 34.3427 12.169C33.7661 11.7597 33.0511 11.5453 32.3329 11.5293C31.6146 11.5453 30.8996 11.7597 30.3231 12.169C29.8141 12.5303 29.4397 13.0379 29.2571 13.6137C28.7338 15.2667 29.521 17.3757 31.4047 17.8421C31.7089 17.917 32.0215 17.949 32.3329 17.941C32.6449 17.949 32.9575 17.917 33.2611 17.8421C35.1448 17.3757 35.9319 15.2667 35.4087 13.6137ZM34.0099 15.459C33.8129 16.2419 33.263 17.0832 32.3322 17.0924C31.4014 17.0832 30.8515 16.2419 30.6546 15.459C30.4648 14.705 30.4999 13.8171 30.9464 13.1442C31.2558 12.6778 31.7823 12.4019 32.3316 12.3982C32.8815 12.4019 33.4073 12.6784 33.7167 13.1442C34.1633 13.8171 34.1984 14.705 34.0086 15.459H34.0099Z" fill="url(#paint7_linear_1608_4515)"/>
    <defs>
        <linearGradient id="paint0_linear_1608_4515" x1="27.3786" y1="19.3144" x2="51.3278" y2="11.5381" gradientUnits="userSpaceOnUse">
            <stop offset="0.33" stop-color="#9C8837"/>
            <stop offset="0.56" stop-color="#F7E59E"/>
            <stop offset="0.6" stop-color="#F0DE96"/>
            <stop offset="0.67" stop-color="#DECB80"/>
            <stop offset="0.75" stop-color="#C0AC5D"/>
            <stop offset="0.79" stop-color="#B39F4D"/>
        </linearGradient>
        <linearGradient id="paint1_linear_1608_4515" x1="12.3706" y1="15.4523" x2="8.09967" y2="12.0339" gradientUnits="userSpaceOnUse">
            <stop offset="0.33" stop-color="#9C8837"/>
            <stop offset="0.56" stop-color="#F7E59E"/>
            <stop offset="0.6" stop-color="#F0DE96"/>
            <stop offset="0.67" stop-color="#DECB80"/>
            <stop offset="0.75" stop-color="#C0AC5D"/>
            <stop offset="0.79" stop-color="#B39F4D"/>
        </linearGradient>
        <linearGradient id="paint2_linear_1608_4515" x1="10.7061" y1="17.5312" x2="6.4352" y2="14.1128" gradientUnits="userSpaceOnUse">
            <stop offset="0.33" stop-color="#9C8837"/>
            <stop offset="0.56" stop-color="#F7E59E"/>
            <stop offset="0.6" stop-color="#F0DE96"/>
            <stop offset="0.67" stop-color="#DECB80"/>
            <stop offset="0.75" stop-color="#C0AC5D"/>
            <stop offset="0.79" stop-color="#B39F4D"/>
        </linearGradient>
        <linearGradient id="paint3_linear_1608_4515" x1="12.0106" y1="16.0223" x2="7.58646" y2="12.6584" gradientUnits="userSpaceOnUse">
            <stop offset="0.33" stop-color="#9C8837"/>
            <stop offset="0.56" stop-color="#F7E59E"/>
            <stop offset="0.6" stop-color="#F0DE96"/>
            <stop offset="0.67" stop-color="#DECB80"/>
            <stop offset="0.75" stop-color="#C0AC5D"/>
            <stop offset="0.79" stop-color="#B39F4D"/>
        </linearGradient>
        <linearGradient id="paint4_linear_1608_4515" x1="12.2227" y1="16.112" x2="7.62939" y2="12.5553" gradientUnits="userSpaceOnUse">
            <stop offset="0.33" stop-color="#9C8837"/>
            <stop offset="0.56" stop-color="#F7E59E"/>
            <stop offset="0.6" stop-color="#F0DE96"/>
            <stop offset="0.67" stop-color="#DECB80"/>
            <stop offset="0.75" stop-color="#C0AC5D"/>
            <stop offset="0.79" stop-color="#B39F4D"/>
        </linearGradient>
        <linearGradient id="paint5_linear_1608_4515" x1="28.8767" y1="16.7526" x2="22.1284" y2="12.9668" gradientUnits="userSpaceOnUse">
            <stop offset="0.33" stop-color="#9C8837"/>
            <stop offset="0.56" stop-color="#F7E59E"/>
            <stop offset="0.6" stop-color="#F0DE96"/>
            <stop offset="0.67" stop-color="#DECB80"/>
            <stop offset="0.75" stop-color="#C0AC5D"/>
            <stop offset="0.79" stop-color="#B39F4D"/>
        </linearGradient>
        <linearGradient id="paint6_linear_1608_4515" x1="21.1193" y1="16.4312" x2="14.4191" y2="11.9938" gradientUnits="userSpaceOnUse">
            <stop offset="0.33" stop-color="#9C8837"/>
            <stop offset="0.56" stop-color="#F7E59E"/>
            <stop offset="0.6" stop-color="#F0DE96"/>
            <stop offset="0.67" stop-color="#DECB80"/>
            <stop offset="0.75" stop-color="#C0AC5D"/>
            <stop offset="0.79" stop-color="#B39F4D"/>
        </linearGradient>
        <linearGradient id="paint7_linear_1608_4515" x1="37.217" y1="17.4328" x2="28.8575" y2="12.3007" gradientUnits="userSpaceOnUse">
            <stop offset="0.33" stop-color="#9C8837"/>
            <stop offset="0.56" stop-color="#F7E59E"/>
            <stop offset="0.6" stop-color="#F0DE96"/>
            <stop offset="0.67" stop-color="#DECB80"/>
            <stop offset="0.75" stop-color="#C0AC5D"/>
            <stop offset="0.79" stop-color="#B39F4D"/>
        </linearGradient>
    </defs>
</svg>
