<svg width="39" height="30" viewBox="0 0 39 30" fill="none" xmlns="http://www.w3.org/2000/svg">
    <g clip-path="url(#clip0_1608_4539)">
        <path d="M7.23842 29.7065V27.75C7.23842 27 6.77571 26.5108 5.98249 26.5108C5.58588 26.5108 5.15622 26.6413 4.85876 27.0652C4.6274 26.7065 4.2969 26.5108 3.80113 26.5108C3.47062 26.5108 3.14012 26.6087 2.87571 26.9673V26.576H2.18164V29.7065H2.87571V27.9782C2.87571 27.4239 3.17317 27.163 3.63588 27.163C4.09859 27.163 4.32995 27.4565 4.32995 27.9782V29.7065H5.02401V27.9782C5.02401 27.4239 5.35452 27.163 5.78418 27.163C6.24689 27.163 6.47825 27.4565 6.47825 27.9782V29.7065H7.23842ZM17.5172 26.576H16.3935V25.6304H15.6994V26.576H15.0715V27.1956H15.6994V28.6304C15.6994 29.3478 15.9969 29.7717 16.7901 29.7717C17.0876 29.7717 17.4181 29.6739 17.6494 29.5434L17.4511 28.9565C17.2528 29.0869 17.0215 29.1195 16.8562 29.1195C16.5257 29.1195 16.3935 28.9239 16.3935 28.5978V27.1956H17.5172V26.576ZM23.4003 26.5108C23.0037 26.5108 22.7393 26.7065 22.574 26.9673V26.576H21.8799V29.7065H22.574V27.9456C22.574 27.4239 22.8054 27.1304 23.235 27.1304C23.3672 27.1304 23.5325 27.163 23.6647 27.1956L23.863 26.5434C23.7308 26.5108 23.5325 26.5108 23.4003 26.5108ZM14.5096 26.8369C14.1791 26.6087 13.7164 26.5108 13.2206 26.5108C12.4274 26.5108 11.8986 26.9021 11.8986 27.5217C11.8986 28.0434 12.2952 28.3369 12.9893 28.4347L13.3198 28.4673C13.6833 28.5326 13.8816 28.6304 13.8816 28.7934C13.8816 29.0217 13.6172 29.1847 13.1545 29.1847C12.6918 29.1847 12.3283 29.0217 12.0969 28.8587L11.7664 29.3804C12.1299 29.6413 12.6257 29.7717 13.1215 29.7717C14.0469 29.7717 14.5757 29.3478 14.5757 28.7608C14.5757 28.2065 14.146 27.913 13.485 27.8152L13.1545 27.7826C12.8571 27.75 12.6257 27.6847 12.6257 27.4891C12.6257 27.2608 12.8571 27.1304 13.2206 27.1304C13.6172 27.1304 14.0138 27.2934 14.2121 27.3913L14.5096 26.8369ZM32.952 26.5108C32.5554 26.5108 32.291 26.7065 32.1257 26.9673V26.576H31.4316V29.7065H32.1257V27.9456C32.1257 27.4239 32.3571 27.1304 32.7867 27.1304C32.9189 27.1304 33.0842 27.163 33.2164 27.1956L33.4147 26.5434C33.2825 26.5108 33.0842 26.5108 32.952 26.5108ZM24.0944 28.1413C24.0944 29.0869 24.7554 29.7717 25.7799 29.7717C26.2427 29.7717 26.5732 29.6739 26.9037 29.413L26.5732 28.8587C26.3088 29.0543 26.0444 29.1521 25.7469 29.1521C25.185 29.1521 24.7884 28.7608 24.7884 28.1413C24.7884 27.5543 25.185 27.163 25.7469 27.1304C26.0444 27.1304 26.3088 27.2282 26.5732 27.4239L26.9037 26.8695C26.5732 26.6087 26.2427 26.5108 25.7799 26.5108C24.7554 26.5108 24.0944 27.1956 24.0944 28.1413ZM30.5062 28.1413V26.576H29.8122V26.9673C29.5808 26.6739 29.2503 26.5108 28.8206 26.5108C27.9283 26.5108 27.2342 27.1956 27.2342 28.1413C27.2342 29.0869 27.9283 29.7717 28.8206 29.7717C29.2833 29.7717 29.6138 29.6087 29.8122 29.3152V29.7065H30.5062V28.1413ZM27.9613 28.1413C27.9613 27.5869 28.3249 27.1304 28.9198 27.1304C29.4816 27.1304 29.8783 27.5543 29.8783 28.1413C29.8783 28.6956 29.4816 29.1521 28.9198 29.1521C28.3249 29.1195 27.9613 28.6956 27.9613 28.1413ZM19.6655 26.5108C18.7401 26.5108 18.0791 27.163 18.0791 28.1413C18.0791 29.1195 18.7401 29.7717 19.6986 29.7717C20.1613 29.7717 20.624 29.6413 20.9876 29.3478L20.6571 28.8587C20.3927 29.0543 20.0622 29.1847 19.7316 29.1847C19.302 29.1847 18.8723 28.9891 18.7732 28.4347H21.1198C21.1198 28.3369 21.1198 28.2717 21.1198 28.1739C21.1528 27.163 20.5579 26.5108 19.6655 26.5108ZM19.6655 27.0978C20.0952 27.0978 20.3927 27.3587 20.4588 27.8478H18.8062C18.8723 27.4239 19.1698 27.0978 19.6655 27.0978ZM36.885 28.1413V25.3369H36.191V26.9673C35.9596 26.6739 35.6291 26.5108 35.1994 26.5108C34.3071 26.5108 33.613 27.1956 33.613 28.1413C33.613 29.0869 34.3071 29.7717 35.1994 29.7717C35.6621 29.7717 35.9927 29.6087 36.191 29.3152V29.7065H36.885V28.1413ZM34.3401 28.1413C34.3401 27.5869 34.7037 27.1304 35.2986 27.1304C35.8605 27.1304 36.2571 27.5543 36.2571 28.1413C36.2571 28.6956 35.8605 29.1521 35.2986 29.1521C34.7037 29.1195 34.3401 28.6956 34.3401 28.1413ZM11.1384 28.1413V26.576H10.4444V26.9673C10.213 26.6739 9.88249 26.5108 9.45283 26.5108C8.56045 26.5108 7.86639 27.1956 7.86639 28.1413C7.86639 29.0869 8.56045 29.7717 9.45283 29.7717C9.91554 29.7717 10.246 29.6087 10.4444 29.3152V29.7065H11.1384V28.1413ZM8.56045 28.1413C8.56045 27.5869 8.92401 27.1304 9.51893 27.1304C10.0808 27.1304 10.4774 27.5543 10.4774 28.1413C10.4774 28.6956 10.0808 29.1521 9.51893 29.1521C8.92401 29.1195 8.56045 28.6956 8.56045 28.1413Z" fill="black"/>
        <path d="M24.6888 2.80444H14.2778V21.261H24.6888V2.80444Z" fill="#FF5F00"/>
        <path d="M14.9391 12.0326C14.9391 8.28259 16.7238 4.9565 19.467 2.80433C17.4509 1.23911 14.906 0.293457 12.1298 0.293457C5.55263 0.293457 0.231445 5.54346 0.231445 12.0326C0.231445 18.5217 5.55263 23.7717 12.1298 23.7717C14.906 23.7717 17.4509 22.8261 19.467 21.2608C16.7238 19.1413 14.9391 15.7826 14.9391 12.0326Z" fill="#EB001B"/>
        <path d="M38.7356 12.0326C38.7356 18.5217 33.4144 23.7717 26.8373 23.7717C24.061 23.7717 21.5161 22.8261 19.5 21.2608C22.2763 19.1087 24.028 15.7826 24.028 12.0326C24.028 8.28259 22.2432 4.9565 19.5 2.80433C21.5161 1.23911 24.061 0.293457 26.8373 0.293457C33.4144 0.293457 38.7356 5.57607 38.7356 12.0326Z" fill="#F79E1B"/>
    </g>
    <defs>
        <clipPath id="clip0_1608_4539">
            <rect width="39" height="30" fill="white"/>
        </clipPath>
    </defs>
</svg>
