<svg width="57" height="20" viewBox="0 0 57 20" fill="none" xmlns="http://www.w3.org/2000/svg">
    <g clip-path="url(#clip0_1608_4529)">
        <path d="M28.1331 1.01892L24.3622 19.1318H19.8013L23.5725 1.01892H28.1331ZM47.3209 12.715L49.722 5.91263L51.1031 12.715H47.3209ZM52.4119 19.1318H56.6292L52.9447 1.01892H49.0542C48.1775 1.01892 47.4388 1.54131 47.1116 2.34672L40.2678 19.1318H45.0576L46.0087 16.427H51.8592L52.4119 19.1318ZM40.5053 13.2183C40.5255 8.43833 34.074 8.17326 34.1169 6.03759C34.1309 5.38848 34.7332 4.69712 36.0506 4.52041C36.7039 4.43381 38.5058 4.36411 40.5488 5.3311L41.3478 1.48851C40.2504 1.08087 38.8384 0.688025 37.0819 0.688025C32.573 0.688025 29.4011 3.14861 29.3757 6.67509C29.3469 9.28281 31.6414 10.7366 33.3665 11.6051C35.1454 12.4928 35.7415 13.0624 35.733 13.8555C35.7206 15.0706 34.3142 15.6085 33.0054 15.6289C30.7106 15.6655 29.3812 14.9918 28.3212 14.4842L27.4934 18.4549C28.5606 18.9569 30.5273 19.3937 32.5638 19.4163C37.357 19.4163 40.4912 16.9842 40.5053 13.2183ZM21.6162 1.01892L14.2263 19.1318H9.40565L5.76877 4.67635C5.54847 3.78751 5.35626 3.46084 4.68576 3.08525C3.58905 2.47309 1.77832 1.90071 0.186523 1.54448L0.294105 1.01892H8.05505C9.0435 1.01892 9.93293 1.69479 10.1591 2.86453L12.0801 13.3468L16.8247 1.01892H21.6162Z" fill="#1F3E79"/>
    </g>
    <defs>
        <clipPath id="clip0_1608_4529">
            <rect width="57" height="19" fill="white" transform="translate(0 0.5)"/>
        </clipPath>
    </defs>
</svg>
