<svg width="421" height="171" viewBox="0 0 421 171" fill="none" xmlns="http://www.w3.org/2000/svg">
    <path d="M1 183.574C10.135 186.05 32.5158 177.059 44.9591 174.088C60.5133 170.374 84.2149 151.802 90.1403 133.23C96.0657 114.659 81.2522 112.43 77.5488 119.116C73.8455 125.802 71.6234 140.659 90.1403 151.059C104.954 159.379 117.441 149.387 123.471 133.23C129.5 117.073 133.692 95.1955 141.988 91.6297M336.044 26.2575L315.306 15.1145L411.593 1L340.348 28.9932C339.983 29.1367 339.735 29.4808 339.715 29.8728L338.266 58.2007L357.715 43.0291C358.045 42.7716 358.501 42.747 358.857 42.9675L383.448 58.2007L419 1C402.952 5.95244 367.005 21.8003 351.599 45.572C340.742 62.3232 329.415 73.6446 318.281 81" stroke="black"/>
    <g clip-path="url(#clip0_1608_4454)">
        <path d="M254.568 42.3293H204.432L197.869 42.3293V130.6L197.869 133.023C197.869 134.395 197.869 134.951 197.869 137.159H261.131V130.6V42.3292L254.568 42.3293Z" stroke="black"/>
        <path d="M209.592 107.183H249.408" stroke="black"/>
        <path d="M209.592 121.598H249.408" stroke="black"/>
        <path d="M229.104 90.2974L248.623 66.4318L241.17 55.7898H217.045L209.592 66.4318L229.104 90.2974Z" stroke="black"/>
        <path d="M261.131 53.8406H306.113C309.738 53.8406 310 53.8406 312.677 53.8406V148.677C310 148.677 309.738 148.677 306.113 148.677H255.971C252.347 148.677 254 148.677 249.408 148.677V137.159" stroke="black"/>
        <path d="M261.131 118.694H300.947" stroke="black"/>
        <path d="M261.131 133.109H300.947" stroke="black"/>
        <path d="M280.65 101.809L295.293 83.9096C298.173 80.3864 298.364 75.3749 295.748 71.6475C295.748 71.6475 295.708 71.5948 295.688 71.5685C292.967 67.7621 287.491 67.2419 283.958 70.3107L280.65 73.1885L277.342 70.3107C273.81 67.2419 268.334 67.7621 265.612 71.5685C265.593 71.5948 265.573 71.6212 265.553 71.6475C262.943 75.3749 263.128 80.3864 266.008 83.9162L280.65 101.815V101.809Z" stroke="black"/>
        <path d="M209.592 137.159V148.677C207 148.677 206.653 148.677 203.029 148.677H152.893C149.269 148.677 150.5 148.677 146.33 148.677V53.8406C149.5 53.8406 149.269 53.8406 152.893 53.8406H197.869" stroke="black"/>
        <path d="M158.053 118.694H197.869" stroke="black"/>
        <path d="M158.053 133.109H197.869" stroke="black"/>
        <path d="M177.229 95.5789L165.374 101.809L167.641 88.6181L158.053 79.2734L171.305 77.3505L177.229 65.3518L183.153 77.3505L196.406 79.2734L186.817 88.6181L189.084 101.809L177.229 95.5789Z" stroke="black"/>
    </g>
    <defs>
        <clipPath id="clip0_1608_4454">
            <rect width="167" height="107" fill="white" transform="translate(146 42)"/>
        </clipPath>
    </defs>
</svg>
