<svg width="24" height="24" viewBox="0 0 24 24" fill="none" xmlns="http://www.w3.org/2000/svg">
    <path d="M3 12C3 10.22 3.52784 8.47991 4.51677 6.99987C5.50571 5.51982 6.91132 4.36627 8.55585 3.68508C10.2004 3.0039 12.01 2.82567 13.7558 3.17293C15.5016 3.5202 17.1053 4.37737 18.364 5.63604C19.6226 6.89471 20.4798 8.49836 20.8271 10.2442C21.1743 11.99 20.9961 13.7996 20.3149 15.4442C19.6337 17.0887 18.4802 18.4943 17.0001 19.4832C15.5201 20.4722 13.78 21 12 21L12 18.875C13.3597 18.875 14.689 18.4718 15.8195 17.7164C16.9501 16.9609 17.8313 15.8872 18.3517 14.631C18.872 13.3747 19.0082 11.9924 18.7429 10.6588C18.4776 9.32514 17.8228 8.10013 16.8614 7.13864C15.8999 6.17716 14.6749 5.52238 13.3412 5.2571C12.0076 4.99183 10.6253 5.12798 9.36905 5.64833C8.11281 6.16868 7.03908 7.04987 6.28365 8.18045C5.52821 9.31104 5.125 10.6403 5.125 12L3 12Z" fill="currentColor" fill-opacity="0.5"/>
</svg>
