<svg width="51" height="50" viewBox="0 0 51 50" fill="none" xmlns="http://www.w3.org/2000/svg">
    <mask id="mask0_201_830" style="mask-type:alpha" maskUnits="userSpaceOnUse" x="0" y="0" width="51" height="50">
        <path fill-rule="evenodd" clip-rule="evenodd" d="M0 25C0 38.8072 11.1937 50 25.002 50C38.8103 50 50.004 38.8072 50.004 25C50.004 11.1928 38.8103 0 25.002 0C11.1937 0 0 11.1928 0 25Z" fill="white"/>
    </mask>
    <g mask="url(#mask0_201_830)">
        <path fill-rule="evenodd" clip-rule="evenodd" d="M0 25.0002C0 38.8074 11.1937 50.0002 25.002 50.0002C38.8103 50.0002 50.004 38.8074 50.004 25.0002C50.004 11.1931 38.8103 0.000244141 25.002 0.000244141C11.1937 0.000244141 0 11.1931 0 25.0002Z" fill="url(#paint0_radial_201_830)"/>
        <path d="M6.77162 7.50027V-1.49976H42.7746V7.50027H6.77162ZM42.7746 42.5001V51.5001H6.77162V42.5001H42.7746ZM52.2738 31.0009H-2.23047V19.0009H52.2738V31.0009Z" fill="black" stroke="black"/>
    </g>
    <defs>
        <radialGradient id="paint0_radial_201_830" cx="0" cy="0" r="1" gradientUnits="userSpaceOnUse" gradientTransform="translate(32.3297 20.1186) rotate(103.778) scale(30.7671 30.7727)">
            <stop stop-color="#FBE993"/>
            <stop offset="0.426228" stop-color="#FDE622"/>
            <stop offset="1" stop-color="#F5B732"/>
        </radialGradient>
    </defs>
</svg>
