<svg width="12" height="14" viewBox="0 0 12 14" fill="none" xmlns="http://www.w3.org/2000/svg">
    <mask id="path-1-inside-1_201_881" fill="white">
        <path fill-rule="evenodd" clip-rule="evenodd" d="M11.1111 11.0897C10.9303 11.1053 10.7473 11.1132 10.5625 11.1132C7.0762 11.1132 4.25 8.287 4.25 4.80071C4.25 3.23501 4.82002 1.80244 5.76386 0.699219C2.53446 0.977252 0 3.68675 0 6.98821C0 10.4745 2.8262 13.3007 6.3125 13.3007C8.2331 13.3007 9.95336 12.443 11.1111 11.0897Z"/>
    </mask>
    <path d="M11.1111 11.0897L11.871 11.7398L13.4588 9.88387L11.0254 10.0934L11.1111 11.0897ZM5.76386 0.699219L6.52372 1.3493L8.1115 -0.506599L5.67808 -0.297096L5.76386 0.699219ZM11.0254 10.0934C10.873 10.1065 10.7187 10.1132 10.5625 10.1132V12.1132C10.776 12.1132 10.9876 12.104 11.1969 12.086L11.0254 10.0934ZM10.5625 10.1132C7.62849 10.1132 5.25 7.73472 5.25 4.80071H3.25C3.25 8.83929 6.52392 12.1132 10.5625 12.1132V10.1132ZM5.25 4.80071C5.25 3.48226 5.729 2.27823 6.52372 1.3493L5.004 0.0491351C3.91104 1.32665 3.25 2.98775 3.25 4.80071H5.25ZM1 6.98821C1 4.21028 3.13287 1.92943 5.84964 1.69553L5.67808 -0.297096C1.93604 0.0250729 -1 3.16323 -1 6.98821H1ZM6.3125 12.3007C3.37849 12.3007 1 9.92222 1 6.98821H-1C-1 11.0268 2.27392 14.3007 6.3125 14.3007V12.3007ZM10.3513 10.4396C9.37538 11.5803 7.9286 12.3007 6.3125 12.3007V14.3007C8.53759 14.3007 10.5313 13.3057 11.871 11.7398L10.3513 10.4396Z" fill="#D9D9D9" fill-opacity="0.5" mask="url(#path-1-inside-1_201_881)"/>
</svg>
