<svg width="32" height="32" viewBox="0 0 32 32" fill="none" xmlns="http://www.w3.org/2000/svg">
    <path d="M14.6962 4.04822L15.648 4.35493L16.3464 2.18759L14.278 3.13986L14.6962 4.04822ZM27.2995 22.9509L27.9779 23.6856L29.6514 22.1403L27.3812 21.9542L27.2995 22.9509ZM9 14.4999C9 10.2681 11.5034 6.619 15.1143 4.95658L14.278 3.13986C9.98413 5.11668 7 9.45874 7 14.4999H9ZM19.5 24.9999C13.701 24.9999 9 20.2989 9 14.4999H7C7 21.4034 12.5964 26.9999 19.5 26.9999V24.9999ZM26.6211 22.2162C24.7488 23.945 22.2487 24.9999 19.5 24.9999V26.9999C22.7711 26.9999 25.7507 25.7421 27.9779 23.6856L26.6211 22.2162ZM27.3812 21.9542C20.4493 21.3861 15 15.5788 15 8.49987H13C13 16.6286 19.2567 23.2951 27.2178 23.9475L27.3812 21.9542ZM15 8.49987C15 7.05224 15.2275 5.65969 15.648 4.35493L13.7444 3.7415C13.2608 5.24208 13 6.84149 13 8.49987H15Z" fill="currentColor"/>
</svg>
