<svg width="183" height="117" viewBox="0 0 183 117" fill="none" xmlns="http://www.w3.org/2000/svg">
    <path d="M172 18H182V116H15V103" stroke="black"/>
    <rect x="0.5" y="0.5" width="166" height="97" stroke="black"/>
    <rect x="12.5" y="31.5" width="21" height="16" rx="3.5" stroke="black"/>
    <circle cx="14.5536" cy="58.4464" r="2.55357" fill="black"/>
    <circle cx="22.2142" cy="58.4464" r="2.55357" fill="black"/>
    <circle cx="29.8749" cy="58.4464" r="2.55357" fill="black"/>
    <circle cx="37.5355" cy="58.4464" r="2.55357" fill="black"/>
    <circle cx="52.8573" cy="58.4464" r="2.55357" fill="black"/>
    <circle cx="60.5179" cy="58.4464" r="2.55357" fill="black"/>
    <circle cx="68.1786" cy="58.4464" r="2.55357" fill="black"/>
    <circle cx="75.8392" cy="58.4464" r="2.55357" fill="black"/>
    <circle cx="91.161" cy="58.4464" r="2.55357" fill="black"/>
    <circle cx="98.8216" cy="58.4464" r="2.55357" fill="black"/>
    <circle cx="106.482" cy="58.4464" r="2.55357" fill="black"/>
    <circle cx="114.143" cy="58.4464" r="2.55357" fill="black"/>
    <circle cx="129.464" cy="58.4464" r="2.55357" fill="black"/>
    <circle cx="137.125" cy="58.4464" r="2.55357" fill="black"/>
    <circle cx="144.786" cy="58.4464" r="2.55357" fill="black"/>
    <circle cx="152.446" cy="58.4464" r="2.55357" fill="black"/>
    <rect x="12" y="71" width="74" height="3" rx="1.5" fill="black"/>
    <rect x="12" y="80" width="38" height="3" rx="1.5" fill="black"/>
</svg>
