<svg width="32" height="32" viewBox="0 0 32 32" fill="none" xmlns="http://www.w3.org/2000/svg">
    <path d="M27 15.9962C27 22.0689 22.0754 26.9924 16 26.9924C9.92457 26.9924 5 22.0689 5 15.9962C5 9.92346 9.92457 5 16 5C22.0754 5 27 9.92346 27 15.9962Z" stroke="currentColor" stroke-width="2"/>
    <path d="M15.9035 5.19373V26.9629M5.08154 15.8562H27.295M6.22069 10.2444L8.45085 10.7614C13.3542 11.8981 18.4527 11.8981 23.3561 10.7614L25.5863 10.2444M6.22069 21.468L8.45084 20.951C13.3542 19.8142 18.4527 19.8142 23.3561 20.951L25.5863 21.468" stroke="currentColor" stroke-width="2"/>
    <path d="M21.545 15.9962C21.545 19.1745 20.84 22.0023 19.7501 23.9998C18.6396 26.0351 17.2697 26.9924 15.9996 26.9924C14.7294 26.9924 13.3595 26.0351 12.2491 23.9998C11.1592 22.0023 10.4541 19.1745 10.4541 15.9962C10.4541 12.8179 11.1592 9.99009 12.2491 7.99257C13.3595 5.95731 14.7294 5 15.9996 5C17.2697 5 18.6396 5.95731 19.7501 7.99257C20.84 9.99009 21.545 12.8179 21.545 15.9962Z" stroke="currentColor" stroke-width="2"/>
</svg>
